<svg xmlns="http://www.w3.org/2000/svg" xmlns:xlink="http://www.w3.org/1999/xlink" width="2000" zoomAndPan="magnify" viewBox="0 0 1500 1499.999933" height="2000" preserveAspectRatio="xMidYMid meet" version="1.0"><defs><g/><clipPath id="2a4c666b8b"><rect x="0" width="739" y="0" height="1500"/></clipPath></defs><g transform="matrix(1, 0, 0, 1, 409, 0.000000000000112861)"><g clip-path="url(#2a4c666b8b)"><g fill="#ffffff" fill-opacity="1"><g transform="translate(1.064197, 1414.703484)"><g><path d="M 426.84375 -923.921875 L 669.234375 -923.921875 L 669.234375 -713.140625 L 433.859375 -713.140625 L 433.859375 0 L 159.84375 0 L 159.84375 -713.140625 L 14.046875 -713.140625 L 14.046875 -923.921875 L 159.84375 -923.921875 L 159.84375 -966.078125 C 159.84375 -1073.804688 191.753906 -1159.285156 255.578125 -1222.515625 C 319.398438 -1285.753906 409.273438 -1317.375 525.203125 -1317.375 C 566.191406 -1317.375 605.128906 -1312.984375 642.015625 -1304.203125 C 678.898438 -1295.421875 709.640625 -1282.832031 734.234375 -1266.4375 L 662.21875 -1067.953125 C 630.59375 -1090.203125 593.703125 -1101.328125 551.546875 -1101.328125 C 468.410156 -1101.328125 426.84375 -1055.65625 426.84375 -964.3125 Z M 426.84375 -923.921875 "/></g></g></g></g></g></svg>