<svg xmlns="http://www.w3.org/2000/svg" xmlns:xlink="http://www.w3.org/1999/xlink" width="2000" zoomAndPan="magnify" viewBox="0 0 1500 1499.999933" height="2000" preserveAspectRatio="xMidYMid meet" version="1.0"><defs><clipPath id="1debcb1b44"><path d="M 82.863281 82.863281 L 1417 82.863281 L 1417 1417 L 82.863281 1417 Z M 82.863281 82.863281 " clip-rule="nonzero"/></clipPath></defs><g clip-path="url(#1debcb1b44)"><path fill="#ffffff" d="M 473.527344 87.449219 C 402.574219 90.78125 354.117188 102.15625 311.757812 118.75 C 267.886719 135.84375 230.746094 158.71875 193.789062 195.863281 C 156.773438 233.007812 134.019531 270.214844 117.113281 314.144531 C 100.710938 356.628906 89.585938 405.085938 86.445312 476.105469 C 83.300781 547.1875 82.609375 569.875 82.925781 751.003906 C 83.238281 932.070312 84.058594 954.824219 87.449219 1025.96875 C 90.84375 1096.921875 102.15625 1145.316406 118.75 1187.738281 C 135.84375 1231.605469 158.71875 1268.6875 195.863281 1305.707031 C 233.007812 1342.722656 270.214844 1365.410156 314.144531 1382.378906 C 356.566406 1398.785156 405.085938 1409.972656 476.042969 1413.050781 C 547.1875 1416.191406 569.875 1416.882812 750.941406 1416.507812 C 932.070312 1416.191406 954.757812 1415.375 1025.902344 1411.980469 C 1096.859375 1408.589844 1145.253906 1397.210938 1187.675781 1380.683594 C 1231.542969 1363.527344 1268.6875 1340.710938 1305.644531 1303.570312 C 1342.597656 1266.425781 1365.347656 1229.21875 1382.316406 1185.289062 C 1398.722656 1142.863281 1409.910156 1094.347656 1412.988281 1023.453125 C 1416.066406 952.308594 1416.820312 929.558594 1416.507812 748.492188 C 1416.191406 567.425781 1415.3125 544.734375 1411.980469 473.589844 C 1408.589844 402.574219 1397.277344 354.179688 1380.683594 311.757812 C 1363.527344 267.886719 1340.710938 230.808594 1303.570312 193.789062 C 1266.425781 156.835938 1229.21875 134.019531 1185.289062 117.113281 C 1142.863281 100.710938 1094.347656 89.523438 1023.390625 86.445312 C 952.246094 83.300781 929.496094 82.609375 748.429688 82.925781 C 567.363281 83.238281 544.671875 84.054688 473.527344 87.449219 M 481.320312 1292.945312 C 416.335938 1290.117188 381.015625 1279.308594 357.449219 1270.257812 C 326.273438 1258.191406 304.089844 1243.738281 280.648438 1220.546875 C 257.265625 1197.230469 242.8125 1175.042969 230.621094 1143.996094 C 221.507812 1120.492188 210.507812 1085.234375 207.429688 1020.183594 C 204.097656 949.921875 203.34375 928.804688 203.027344 750.753906 C 202.714844 572.765625 203.34375 551.648438 206.421875 481.320312 C 209.1875 416.335938 220.0625 381.015625 229.109375 357.511719 C 241.179688 326.335938 255.570312 304.152344 278.824219 280.710938 C 302.140625 257.328125 324.328125 242.875 355.4375 230.683594 C 378.941406 221.507812 414.199219 210.570312 479.183594 207.492188 C 549.511719 204.160156 570.566406 203.46875 748.617188 203.089844 C 926.667969 202.714844 947.785156 203.34375 1018.109375 206.484375 C 1083.097656 209.3125 1118.417969 220.0625 1141.921875 229.171875 C 1173.09375 241.242188 1195.34375 255.570312 1218.722656 278.886719 C 1242.101562 302.203125 1256.621094 324.328125 1268.75 355.5 C 1277.925781 378.941406 1288.863281 414.261719 1291.941406 479.183594 C 1295.273438 549.511719 1296.027344 570.628906 1296.339844 748.617188 C 1296.65625 926.667969 1296.027344 947.785156 1292.949219 1018.046875 C 1290.121094 1083.035156 1279.308594 1118.417969 1270.257812 1141.921875 C 1258.191406 1173.03125 1243.800781 1195.28125 1220.484375 1218.660156 C 1197.167969 1241.976562 1175.042969 1256.496094 1143.871094 1268.6875 C 1120.429688 1277.863281 1085.109375 1288.800781 1020.183594 1291.878906 C 949.859375 1295.210938 928.804688 1295.964844 750.691406 1296.277344 C 572.703125 1296.59375 551.585938 1295.964844 481.257812 1292.882812 M 1024.960938 393.269531 C 1025.023438 437.453125 1060.972656 473.214844 1105.09375 473.089844 C 1149.277344 473.027344 1185.035156 437.140625 1184.972656 392.957031 C 1184.910156 348.773438 1148.960938 313.011719 1104.777344 313.078125 C 1060.597656 313.140625 1024.835938 349.089844 1024.898438 393.207031 M 407.285156 750.375 C 407.664062 939.488281 561.265625 1092.460938 750.3125 1092.082031 C 939.425781 1091.707031 1092.460938 938.167969 1092.082031 749.054688 C 1091.707031 560.007812 938.105469 406.972656 748.992188 407.285156 C 559.945312 407.664062 406.910156 561.265625 407.285156 750.375 M 527.390625 750.125 C 527.203125 627.382812 626.503906 527.640625 749.246094 527.453125 C 871.988281 527.203125 971.730469 626.5 971.980469 749.308594 C 972.230469 872.050781 872.867188 971.792969 750.125 971.980469 C 627.382812 972.230469 527.640625 872.867188 527.453125 750.125 " fill-opacity="1" fill-rule="nonzero"/></g></svg>