<svg xmlns="http://www.w3.org/2000/svg" xmlns:xlink="http://www.w3.org/1999/xlink" width="2000" zoomAndPan="magnify" viewBox="0 0 1500 1499.999933" height="2000" preserveAspectRatio="xMidYMid meet" version="1.0"><defs><clipPath id="e9b22b1c25"><path d="M 106.726562 102.683594 L 1392.976562 102.683594 L 1392.976562 1397.183594 L 106.726562 1397.183594 Z M 106.726562 102.683594 " clip-rule="nonzero"/></clipPath></defs><g clip-path="url(#e9b22b1c25)"><path fill="#ffffff" d="M 728.832031 102.914062 C 731.132812 102.910156 733.4375 102.910156 735.742188 102.90625 C 740.546875 102.902344 745.351562 102.90625 750.15625 102.921875 C 756.28125 102.9375 762.40625 102.925781 768.535156 102.910156 C 773.285156 102.898438 778.03125 102.902344 782.78125 102.910156 C 785.039062 102.914062 787.296875 102.910156 789.554688 102.902344 C 801.0625 102.878906 811.816406 102.929688 822.960938 106.074219 C 824.238281 106.351562 825.519531 106.613281 826.800781 106.859375 C 827.855469 107.058594 828.910156 107.261719 829.996094 107.46875 C 836.707031 108.738281 843.453125 109.683594 850.21875 110.609375 C 854.859375 111.253906 859.417969 112.039062 864 113.050781 C 868.503906 114.023438 872.917969 114.636719 877.503906 115.078125 C 878.617188 115.183594 879.734375 115.292969 880.882812 115.40625 C 883.105469 115.613281 885.335938 115.804688 887.5625 115.976562 C 894.914062 116.660156 900.027344 118.089844 905.335938 123.324219 C 907.277344 126.648438 907.089844 129.902344 907.097656 133.648438 C 907.109375 134.460938 907.125 135.273438 907.136719 136.105469 C 907.175781 138.789062 907.191406 141.472656 907.207031 144.15625 C 907.230469 146.027344 907.25 147.894531 907.273438 149.765625 C 907.316406 153.6875 907.351562 157.613281 907.378906 161.535156 C 907.414062 166.546875 907.46875 171.554688 907.53125 176.5625 C 907.578125 180.429688 907.613281 184.292969 907.648438 188.160156 C 907.664062 190.003906 907.683594 191.851562 907.707031 193.695312 C 907.738281 196.289062 907.753906 198.882812 907.765625 201.472656 C 907.777344 202.226562 907.789062 202.980469 907.800781 203.753906 C 907.808594 209.015625 907.632812 214.585938 905.738281 219.539062 C 904.023438 221.214844 904.023438 221.214844 902.015625 222.332031 C 899.414062 222.171875 897.113281 221.882812 894.578125 221.402344 C 893.324219 221.207031 892.070312 221.019531 890.816406 220.832031 C 884.714844 219.820312 878.824219 218.75 872.953125 216.75 C 866.835938 214.722656 860.714844 213.980469 854.355469 213.167969 C 848.480469 212.382812 843.15625 211.152344 837.554688 209.1875 C 830.898438 207.042969 823.984375 207.140625 817.058594 206.933594 C 816.425781 206.914062 815.792969 206.894531 815.140625 206.875 C 796.964844 206.332031 778.78125 206.378906 760.597656 206.398438 C 755.636719 206.402344 750.675781 206.402344 745.714844 206.394531 C 721.210938 206.328125 721.210938 206.328125 696.71875 206.910156 C 695.871094 206.941406 695.023438 206.972656 694.148438 207.007812 C 679.476562 207.515625 679.476562 207.515625 665.421875 211.171875 C 662.710938 212.207031 660.332031 212.539062 657.449219 212.835938 C 631.742188 215.730469 605.640625 221.339844 581.792969 231.628906 C 577.898438 233.078125 573.847656 233.90625 569.796875 234.804688 C 566.074219 235.683594 563.664062 236.738281 560.6875 239.070312 C 557.644531 240.117188 554.574219 240.949219 551.472656 241.804688 C 548.691406 242.757812 547.183594 243.84375 544.875 245.582031 C 542.960938 246.25 541.019531 246.84375 539.0625 247.382812 C 534.839844 248.621094 531.097656 249.996094 527.242188 252.089844 C 524.097656 253.636719 520.773438 254.683594 517.453125 255.789062 C 515.066406 256.761719 513.425781 257.96875 511.394531 259.53125 C 509.320312 260.527344 507.214844 261.390625 505.085938 262.265625 C 502.980469 263.1875 502.980469 263.1875 501.1875 264.652344 C 499.097656 266.195312 497.15625 266.96875 494.710938 267.84375 C 491.003906 269.269531 488.378906 270.878906 485.351562 273.484375 C 483.492188 274.414062 481.632812 275.34375 479.773438 276.273438 C 479.140625 276.949219 479.140625 276.949219 478.492188 277.640625 C 476.613281 279.410156 474.875 280.007812 472.449219 280.867188 C 468.695312 282.292969 466.113281 283.90625 463.03125 286.503906 C 461.804688 287.152344 460.5625 287.769531 459.3125 288.363281 C 456.140625 289.878906 453.667969 291.71875 450.941406 293.945312 C 449.082031 294.875 447.222656 295.804688 445.359375 296.734375 C 444.410156 297.644531 443.480469 298.574219 442.570312 299.527344 C 439.863281 301.261719 437.097656 302.78125 434.199219 304.175781 C 434.199219 304.789062 434.199219 305.402344 434.199219 306.035156 C 432.800781 307.273438 432.800781 307.273438 430.886719 308.652344 C 430.210938 309.140625 429.535156 309.628906 428.839844 310.128906 C 428.152344 310.621094 427.46875 311.109375 426.757812 311.617188 C 426.140625 312.078125 425.519531 312.539062 424.882812 313.015625 C 420.480469 316.265625 420.480469 316.265625 418.390625 316.265625 C 418.074219 317.101562 418.074219 317.101562 417.75 317.953125 C 416.183594 320.558594 414.511719 321.28125 411.878906 322.777344 C 410.015625 324.324219 408.15625 325.875 406.296875 327.425781 C 404.4375 328.667969 402.578125 329.90625 400.71875 331.148438 C 399.703125 331.988281 398.695312 332.84375 397.695312 333.703125 C 395.136719 335.796875 395.136719 335.796875 393.277344 335.796875 C 393.066406 336.335938 392.855469 336.871094 392.636719 337.425781 C 391.113281 340.039062 389.117188 341.355469 386.765625 343.238281 C 386.480469 343.851562 386.191406 344.464844 385.894531 345.097656 C 384.40625 347.898438 381.960938 348.972656 379.328125 350.679688 C 376.769531 353.046875 374.515625 355.511719 372.351562 358.234375 C 370.101562 360.824219 368.304688 362.015625 365.375 363.699219 C 362.699219 366.113281 360.746094 368.320312 358.808594 371.371094 C 356.785156 374.242188 356.4375 374.125 353.285156 374.859375 C 352.65625 376.40625 352.039062 377.957031 351.425781 379.511719 C 349.902344 380.785156 348.351562 382.023438 346.773438 383.230469 C 345.203125 385.070312 343.652344 386.929688 342.125 388.8125 C 340.210938 390.785156 338.246094 392.679688 336.25 394.574219 C 333.554688 397.390625 331.375 400.320312 329.160156 403.515625 C 328.347656 404.675781 327.535156 405.832031 326.71875 406.988281 C 326.332031 407.542969 325.945312 408.097656 325.542969 408.667969 C 323.769531 411.164062 321.914062 413.597656 320.039062 416.019531 C 318.792969 417.699219 318.792969 417.699219 317.585938 419.855469 C 315.917969 422.558594 314.011719 424.871094 311.957031 427.292969 C 309.617188 430.105469 307.402344 432.78125 305.679688 436.011719 C 304.28125 438.515625 303.023438 440.242188 301.144531 442.347656 C 298.707031 445.078125 297.207031 447.808594 295.621094 451.125 C 294.671875 452.273438 294.671875 452.273438 293.703125 453.449219 C 291.75 455.691406 291.75 455.691406 291.03125 458.566406 C 290.042969 461.355469 290.042969 461.355469 287.832031 463.503906 C 285.074219 466.332031 283.984375 468.859375 282.507812 472.460938 C 281.566406 474.613281 280.289062 476.21875 278.882812 478.097656 C 278.238281 479.480469 277.621094 480.878906 277.019531 482.28125 C 275.734375 485.28125 274.328125 487.578125 272.371094 490.1875 C 271.40625 492.269531 270.511719 494.371094 269.636719 496.492188 C 268.652344 498.558594 268.652344 498.558594 267.25 500.394531 C 265.71875 502.46875 264.9375 504.390625 264.058594 506.8125 C 262.960938 509.679688 261.953125 511.855469 260.222656 514.425781 C 258.292969 517.351562 257.4375 519.964844 256.410156 523.28125 C 254.753906 528.054688 252.285156 532.550781 249.777344 536.929688 C 246.703125 542.507812 245.335938 547.949219 244.027344 554.121094 C 242.964844 558.917969 241.375 562.890625 238.972656 567.199219 C 237.609375 569.941406 237.136719 572.644531 236.582031 575.640625 C 236.085938 577.660156 235.375 579.121094 234.355469 580.925781 C 232.101562 585.117188 231.128906 589.585938 230.054688 594.179688 C 229.140625 598.085938 228.050781 601.835938 226.738281 605.628906 C 224.699219 611.996094 224.015625 618.429688 223.210938 625.039062 C 222.632812 629.601562 221.941406 633.746094 220.289062 638.066406 C 217.976562 644.097656 217.417969 650.300781 216.636719 656.671875 C 216.089844 661.050781 215.496094 665.222656 214.183594 669.453125 C 212.878906 673.726562 212.292969 677.933594 211.800781 682.359375 C 211.730469 682.984375 211.660156 683.613281 211.589844 684.257812 C 211.355469 686.53125 211.167969 688.800781 210.988281 691.078125 C 210.863281 692.632812 210.863281 692.632812 210.734375 694.21875 C 209.824219 707.230469 209.914062 720.242188 209.941406 733.277344 C 209.941406 734.503906 209.945312 735.726562 209.945312 736.984375 C 209.964844 753.015625 210.070312 769.042969 210.40625 785.070312 C 210.425781 786.246094 210.425781 786.246094 210.449219 787.445312 C 210.660156 807.816406 210.660156 807.816406 215 827.570312 C 216.21875 831.554688 216.515625 835.699219 216.972656 839.828125 C 217.953125 847.828125 219.449219 854.949219 223.078125 862.207031 C 223.300781 863.65625 223.484375 865.113281 223.648438 866.570312 C 223.753906 867.449219 223.859375 868.328125 223.96875 869.234375 C 224.1875 871.074219 224.394531 872.910156 224.59375 874.75 C 225.25 880.046875 226.394531 884.261719 228.726562 889.050781 C 230.121094 892.269531 230.523438 895.550781 230.984375 899.003906 C 231.746094 903.945312 232.558594 908.011719 235.136719 912.355469 C 236.488281 915.070312 237.171875 917.875 237.957031 920.800781 C 239.144531 925.179688 240.496094 928.898438 242.675781 932.847656 C 243.765625 935.253906 244.292969 937.640625 244.875 940.214844 C 246.152344 945.722656 248.28125 950.277344 250.980469 955.214844 C 251.644531 956.507812 252.304688 957.804688 252.957031 959.109375 C 253.253906 959.707031 253.554688 960.304688 253.863281 960.921875 C 255.167969 963.625 256.308594 966.402344 257.488281 969.164062 C 259.738281 974.179688 259.738281 974.179688 263.070312 978.464844 C 263.804688 981.011719 264.375 983.574219 264.953125 986.160156 C 266 989.078125 267.378906 990.28125 269.582031 992.414062 C 270.644531 994.722656 271.433594 997.046875 272.253906 999.449219 C 273.457031 1002.050781 274.992188 1003.433594 277.019531 1005.4375 C 278.3125 1007.71875 278.3125 1007.71875 279.519531 1010.320312 C 282.132812 1015.75 285.015625 1020.96875 288.035156 1026.179688 C 289.691406 1029.070312 291.195312 1031.910156 292.441406 1035.003906 C 293.652344 1037.738281 294.476562 1038.800781 296.550781 1040.777344 C 297.574219 1042.988281 297.574219 1042.988281 298.46875 1045.429688 C 299.515625 1048.246094 300.449219 1050.34375 302.132812 1052.867188 C 302.515625 1056.253906 302.273438 1058.15625 300.800781 1061.25 C 298.457031 1066.519531 298.296875 1072.296875 297.734375 1077.976562 C 297.109375 1083.390625 296.105469 1086.523438 292.832031 1091 C 291.703125 1094.34375 291.703125 1094.34375 290.914062 1097.859375 C 289.089844 1105.28125 289.089844 1105.28125 287.660156 1108.613281 C 286.222656 1112.148438 285.675781 1115.800781 285.042969 1119.542969 C 284.21875 1124.390625 283.121094 1128.699219 281.207031 1133.261719 C 278.960938 1138.644531 277.898438 1143.851562 277.089844 1149.597656 C 276.617188 1152.816406 276.03125 1155.316406 274.730469 1158.34375 C 272.699219 1163.085938 271.933594 1167.929688 271.011719 1172.984375 C 270.867188 1173.738281 270.71875 1174.488281 270.570312 1175.265625 C 270.445312 1175.941406 270.320312 1176.613281 270.195312 1177.308594 C 269.582031 1179.355469 269.582031 1179.355469 268.183594 1181.617188 C 266.65625 1184.234375 266.238281 1186.15625 265.835938 1189.148438 C 265.621094 1190.597656 265.621094 1190.597656 265.40625 1192.078125 C 265.128906 1194.09375 264.855469 1196.113281 264.582031 1198.128906 C 263.75 1203.757812 262.734375 1207.238281 259.351562 1211.90625 C 258.503906 1214.382812 257.996094 1216.902344 257.488281 1219.464844 C 256.445312 1224.351562 255.269531 1229.003906 253.535156 1233.707031 C 251.90625 1238.410156 250.691406 1243.238281 251.910156 1248.179688 C 253.863281 1250.828125 254.949219 1251.777344 258.210938 1252.363281 C 270.597656 1252.160156 270.597656 1252.160156 281.921875 1247.730469 C 285.59375 1245.691406 289.363281 1245.222656 293.472656 1244.519531 C 299.320312 1243.441406 304.5625 1242.226562 309.992188 1239.746094 C 313.824219 1238.34375 317.835938 1237.824219 321.84375 1237.152344 C 325.261719 1236.554688 328.1875 1235.847656 331.253906 1234.230469 C 336.082031 1231.765625 341.371094 1231.339844 346.691406 1230.707031 C 351.460938 1230.085938 355.167969 1228.820312 359.496094 1226.753906 C 363.308594 1225.171875 367.304688 1224.648438 371.363281 1224 C 377.332031 1222.960938 382.734375 1221.835938 388.265625 1219.289062 C 392.152344 1217.765625 396.253906 1217.132812 400.351562 1216.378906 C 403.558594 1215.726562 403.558594 1215.726562 406.539062 1214.230469 C 410.832031 1212.289062 415.316406 1212.042969 419.957031 1211.558594 C 427.113281 1210.714844 432.910156 1209.476562 439.433594 1206.398438 C 442.625 1204.949219 445.628906 1204.546875 449.082031 1204.46875 C 450.199219 1204.429688 451.320312 1204.394531 452.472656 1204.359375 C 463.417969 1204.140625 463.417969 1204.140625 467.683594 1206.328125 C 468.238281 1206.902344 468.792969 1207.476562 469.367188 1208.070312 C 471.777344 1210.414062 474.195312 1211.488281 477.253906 1212.8125 C 478.84375 1213.769531 478.84375 1213.769531 479.773438 1216.558594 C 481.691406 1217.347656 481.691406 1217.347656 484.015625 1217.835938 C 488.117188 1218.949219 491.148438 1220.464844 494.648438 1222.828125 C 496.644531 1224.082031 498.648438 1224.996094 500.816406 1225.917969 C 504.332031 1227.414062 507.300781 1229.285156 510.464844 1231.4375 C 512.910156 1232.75 515.40625 1233.953125 517.90625 1235.160156 C 518.84375 1235.640625 519.785156 1236.117188 520.753906 1236.613281 C 522.683594 1237.558594 524.644531 1238.445312 526.625 1239.285156 C 529.050781 1240.332031 531.285156 1241.417969 533.597656 1242.65625 C 536.960938 1244.390625 540.140625 1245.144531 543.875 1245.679688 C 545.804688 1246.320312 545.804688 1246.320312 547.425781 1248.152344 C 550.445312 1250.863281 553.378906 1250.953125 557.316406 1251.433594 C 562.914062 1252.125 566.21875 1253.214844 570.917969 1256.550781 C 573.894531 1257.667969 573.894531 1257.667969 576.964844 1258.46875 C 580.078125 1259.332031 582.78125 1260.144531 585.625 1261.695312 C 590.15625 1263.785156 594.839844 1264.097656 599.761719 1264.667969 C 604.8125 1265.347656 607.574219 1266.679688 611.839844 1269.570312 C 614.722656 1270.453125 617.648438 1270.972656 620.617188 1271.488281 C 624.871094 1272.253906 628.75 1272.957031 632.722656 1274.707031 C 636.976562 1276.480469 641.0625 1276.984375 645.613281 1277.535156 C 653.394531 1278.523438 661.035156 1279.773438 668.652344 1281.660156 C 680.296875 1284.453125 691.921875 1285.09375 703.832031 1285.640625 C 714.875 1286.152344 725.839844 1287.046875 736.835938 1288.207031 C 747.136719 1289.261719 756.765625 1289.480469 766.984375 1287.765625 C 775.585938 1286.449219 784.101562 1285.992188 792.792969 1285.789062 C 814.351562 1285.515625 814.351562 1285.515625 835.199219 1280.738281 C 841.398438 1279.113281 847.78125 1278.648438 854.152344 1278.058594 C 864.332031 1277.496094 864.332031 1277.496094 873.183594 1273.292969 C 874.480469 1273.070312 875.785156 1272.902344 877.089844 1272.753906 C 886.132812 1271.652344 894.265625 1270.332031 902.753906 1266.960938 C 905.84375 1265.8125 908.851562 1265.078125 912.074219 1264.398438 C 916.382812 1263.472656 920.078125 1262.226562 924.03125 1260.308594 C 927.53125 1258.746094 931.1875 1257.691406 934.847656 1256.574219 C 937.367188 1255.757812 937.367188 1255.757812 939.179688 1254.195312 C 941.695312 1252.386719 943.972656 1252.0625 947.007812 1251.492188 C 951.777344 1250.480469 954.761719 1249.15625 958.75 1246.320312 C 960.269531 1245.832031 961.800781 1245.390625 963.34375 1244.984375 C 966.449219 1244.132812 968.636719 1243.296875 971.132812 1241.261719 C 974.894531 1238.273438 979.199219 1237.3125 983.78125 1236.082031 C 986.632812 1235.164062 988.773438 1233.945312 991.300781 1232.367188 C 993.1875 1231.652344 995.082031 1231.050781 997.003906 1230.453125 C 998.894531 1229.667969 998.894531 1229.667969 1000.085938 1227.710938 C 1001.902344 1225.382812 1003.105469 1225.160156 1005.949219 1224.523438 C 1009.910156 1223.464844 1012.546875 1222.105469 1015.742188 1219.589844 C 1018.046875 1217.902344 1020.558594 1216.765625 1023.132812 1215.539062 C 1024.894531 1214.703125 1024.894531 1214.703125 1026.703125 1213.246094 C 1028.761719 1211.71875 1030.921875 1210.898438 1033.285156 1209.9375 C 1035.734375 1208.777344 1037.78125 1207.203125 1039.941406 1205.578125 C 1041.523438 1204.46875 1041.523438 1204.46875 1044.605469 1202.957031 C 1047.34375 1201.8125 1047.34375 1201.8125 1048.964844 1198.886719 C 1050.507812 1198.238281 1052.054688 1197.59375 1053.613281 1196.984375 C 1056.425781 1195.644531 1058.730469 1193.757812 1061.152344 1191.820312 C 1062.917969 1190.515625 1062.917969 1190.515625 1064.914062 1189.527344 C 1066.777344 1188.746094 1066.777344 1188.746094 1067.972656 1186.855469 C 1069.734375 1184.53125 1071.558594 1183.585938 1074.078125 1182.144531 C 1075.640625 1180.921875 1077.1875 1179.679688 1078.726562 1178.425781 C 1080.277344 1177.164062 1081.824219 1175.90625 1083.378906 1174.648438 C 1084.527344 1173.710938 1084.527344 1173.710938 1085.703125 1172.753906 C 1087.949219 1171.046875 1090.261719 1169.644531 1092.679688 1168.195312 C 1094.25 1166.667969 1095.796875 1165.113281 1097.328125 1163.546875 C 1098.421875 1162.542969 1099.527344 1161.554688 1100.640625 1160.582031 C 1101.421875 1159.898438 1101.421875 1159.898438 1102.214844 1159.203125 C 1103.839844 1157.964844 1103.839844 1157.964844 1105.847656 1156.988281 C 1107.730469 1156.242188 1107.730469 1156.242188 1108.371094 1154.246094 C 1109.910156 1151.507812 1112.101562 1151.488281 1115 1150.523438 C 1116.03125 1148.773438 1116.03125 1148.773438 1116.859375 1146.804688 C 1118.398438 1145.550781 1119.949219 1144.308594 1121.507812 1143.082031 C 1122.140625 1142.257812 1122.777344 1141.433594 1123.425781 1140.585938 C 1125.3125 1138.335938 1126.097656 1137.808594 1128.949219 1137.503906 C 1128.949219 1136.890625 1128.949219 1136.277344 1128.949219 1135.644531 C 1130.152344 1134.496094 1130.152344 1134.496094 1131.914062 1133.085938 C 1135.789062 1129.792969 1139.265625 1126.21875 1142.726562 1122.507812 C 1143.25 1121.949219 1143.773438 1121.394531 1144.3125 1120.820312 C 1147.054688 1117.855469 1149.273438 1114.996094 1151.269531 1111.460938 C 1152.511719 1110.222656 1153.75 1108.980469 1154.992188 1107.742188 C 1155.296875 1106.820312 1155.605469 1105.898438 1155.921875 1104.953125 C 1156.667969 1104.53125 1157.417969 1104.109375 1158.1875 1103.671875 C 1160.746094 1102.382812 1160.746094 1102.382812 1161.445312 1099.894531 C 1162.8125 1096.597656 1165.066406 1095.695312 1168.011719 1093.792969 C 1169.082031 1091.960938 1169.082031 1091.960938 1169.871094 1090.070312 C 1171.105469 1088.824219 1172.347656 1087.585938 1173.59375 1086.351562 C 1175.027344 1084.683594 1176.441406 1082.996094 1177.835938 1081.292969 C 1178.546875 1080.429688 1179.257812 1079.570312 1179.988281 1078.679688 C 1181.78125 1076.351562 1183.265625 1074 1184.753906 1071.46875 C 1185.234375 1071.007812 1185.710938 1070.550781 1186.207031 1070.074219 C 1187.710938 1068.691406 1187.710938 1068.691406 1188.355469 1066.414062 C 1189.675781 1063.40625 1191.488281 1062.308594 1194.054688 1060.308594 C 1195.011719 1058.777344 1195.941406 1057.226562 1196.84375 1055.660156 C 1197.4375 1055.101562 1198.03125 1054.546875 1198.644531 1053.972656 C 1200.488281 1052.015625 1201.304688 1050.5625 1202.425781 1048.160156 C 1203.882812 1045.054688 1205.195312 1043.703125 1208.003906 1041.707031 C 1208.984375 1039.875 1209.90625 1038.007812 1210.792969 1036.128906 C 1211.574219 1034.859375 1212.371094 1033.601562 1213.179688 1032.347656 C 1214.5 1030.28125 1215.527344 1028.480469 1216.433594 1026.1875 C 1217.304688 1024.035156 1217.304688 1024.035156 1219.046875 1021.945312 C 1221.238281 1019.109375 1222.457031 1016.347656 1223.789062 1013.046875 C 1224.8125 1010.878906 1226.09375 1009.207031 1227.535156 1007.296875 C 1228.34375 1005.761719 1229.117188 1004.210938 1229.859375 1002.644531 C 1231.324219 999.570312 1232.902344 996.972656 1234.976562 994.273438 C 1235.417969 993.394531 1235.859375 992.511719 1236.3125 991.601562 C 1237.765625 988.695312 1237.765625 988.695312 1239.625 986.019531 C 1241.433594 983.195312 1242.460938 980.660156 1243.554688 977.527344 C 1244.464844 975.195312 1245.753906 973.136719 1247.035156 970.996094 C 1248.621094 967.976562 1249.664062 964.78125 1250.78125 961.566406 C 1251.667969 959.070312 1252.632812 956.621094 1253.636719 954.167969 C 1255.039062 950.691406 1256.277344 947.199219 1257.4375 943.636719 C 1261.738281 930.679688 1261.738281 930.679688 1264.390625 924.695312 C 1267.117188 918.367188 1268.789062 912.269531 1269.738281 905.4375 C 1270.394531 902.832031 1271.496094 901.53125 1273.109375 899.410156 C 1273.976562 896.941406 1273.976562 896.941406 1274.5625 894.238281 C 1274.792969 893.25 1275.027344 892.265625 1275.265625 891.25 C 1276.003906 887.746094 1276.59375 884.230469 1277.085938 880.683594 C 1277.703125 878.246094 1278.507812 876.378906 1279.59375 874.132812 C 1281.734375 869.460938 1282.347656 865.015625 1282.875 859.941406 C 1283.660156 853.347656 1284.644531 846.925781 1286.1875 840.46875 C 1288.726562 829.691406 1289.8125 818.929688 1290.519531 807.882812 C 1290.796875 804.3125 1291.207031 800.773438 1291.652344 797.21875 C 1293.742188 780.078125 1294.828125 763.011719 1294.792969 745.738281 C 1294.789062 742.757812 1294.8125 739.777344 1294.835938 736.792969 C 1294.875 722.921875 1293.636719 709.457031 1291.710938 695.726562 C 1290.726562 688.410156 1289.855469 681.109375 1289.246094 673.75 C 1289.132812 672.429688 1289.019531 671.113281 1288.90625 669.796875 C 1288.683594 667.191406 1288.480469 664.582031 1288.285156 661.972656 C 1287.703125 654.863281 1286.476562 648.417969 1284.199219 641.648438 C 1283.089844 638.230469 1282.503906 634.925781 1281.945312 631.378906 C 1281.238281 627.160156 1280.375 623.3125 1278.570312 619.40625 C 1276.003906 613.617188 1275.671875 607.136719 1275.898438 600.863281 C 1278.0625 597.617188 1279.398438 597.347656 1283.097656 596.546875 C 1286.5625 595.996094 1289.976562 595.945312 1293.480469 595.957031 C 1294.273438 595.953125 1295.0625 595.949219 1295.878906 595.941406 C 1298.476562 595.929688 1301.074219 595.929688 1303.671875 595.933594 C 1305.492188 595.929688 1307.3125 595.925781 1309.136719 595.921875 C 1312.945312 595.914062 1316.753906 595.914062 1320.5625 595.917969 C 1325.421875 595.925781 1330.28125 595.910156 1335.140625 595.886719 C 1338.898438 595.875 1342.660156 595.871094 1346.417969 595.875 C 1348.207031 595.875 1350 595.871094 1351.789062 595.859375 C 1371.859375 595.769531 1371.859375 595.769531 1378.203125 599.003906 C 1379.691406 601.859375 1379.691406 601.859375 1380.0625 605.511719 C 1380.292969 606.984375 1380.523438 608.453125 1380.757812 609.921875 C 1381.085938 612.308594 1381.402344 614.695312 1381.707031 617.085938 C 1382.25 621 1382.9375 624.589844 1384.289062 628.308594 C 1385.871094 632.765625 1386.179688 637.035156 1386.457031 641.726562 C 1386.878906 647.386719 1387.492188 652.679688 1389.21875 658.101562 C 1391.429688 665.066406 1392.550781 671.4375 1392.753906 678.753906 C 1392.785156 679.71875 1392.820312 680.679688 1392.855469 681.671875 C 1393.234375 693.855469 1393.21875 706.042969 1393.207031 718.230469 C 1393.207031 720.773438 1393.210938 723.316406 1393.210938 725.863281 C 1393.210938 731.148438 1393.210938 736.433594 1393.207031 741.714844 C 1393.199219 747.789062 1393.203125 753.859375 1393.207031 759.929688 C 1393.210938 765.199219 1393.210938 770.46875 1393.210938 775.742188 C 1393.207031 778.863281 1393.210938 781.988281 1393.210938 785.109375 C 1393.234375 817.722656 1393.234375 817.722656 1390.0625 827.15625 C 1388.714844 831.984375 1388.363281 836.992188 1387.832031 841.960938 C 1386.71875 852.246094 1385.273438 862.289062 1382.65625 872.3125 C 1381.300781 877.523438 1380.328125 882.691406 1379.542969 888.015625 C 1378.789062 893.015625 1377.738281 897.164062 1375.386719 901.640625 C 1373.769531 905.980469 1373.359375 910.636719 1372.824219 915.21875 C 1372.226562 919.839844 1371.09375 923.285156 1368.867188 927.367188 C 1367.421875 930.285156 1366.796875 933.328125 1366.113281 936.496094 C 1364.925781 941.617188 1363.488281 946.375 1361.402344 951.214844 C 1360.476562 953.488281 1359.800781 955.757812 1359.136719 958.121094 C 1358.308594 961.027344 1357.359375 963.511719 1355.882812 966.140625 C 1354.039062 969.5625 1353.363281 972.914062 1352.628906 976.71875 C 1351.667969 981.609375 1350.523438 984.679688 1347.511719 988.695312 C 1346.476562 991.011719 1345.566406 993.355469 1344.664062 995.726562 C 1343.949219 997.589844 1343.152344 999.425781 1342.339844 1001.25 C 1341.253906 1003.890625 1340.46875 1006.355469 1339.722656 1009.097656 C 1338.582031 1013.0625 1336.957031 1016.109375 1334.664062 1019.515625 C 1333.011719 1022.109375 1331.960938 1024.929688 1330.769531 1027.757812 C 1329.597656 1029.925781 1328.382812 1032.070312 1327.164062 1034.214844 C 1326.050781 1036.164062 1326.050781 1036.164062 1325.191406 1038.511719 C 1324.011719 1041.382812 1322.367188 1043.828125 1320.691406 1046.433594 C 1319.507812 1048.277344 1319.507812 1048.277344 1318.621094 1050.71875 C 1317.75 1052.867188 1317.75 1052.867188 1315.949219 1055.019531 C 1314.21875 1057.273438 1313.523438 1058.679688 1312.636719 1061.296875 C 1311.488281 1064.632812 1310.023438 1066.175781 1307.519531 1068.679688 C 1306.503906 1070.765625 1305.625 1072.886719 1304.738281 1075.027344 C 1303.550781 1077.585938 1301.878906 1079.539062 1300.078125 1081.699219 C 1299.648438 1082.851562 1299.648438 1082.851562 1299.207031 1084.027344 C 1298.21875 1086.351562 1298.21875 1086.351562 1296.011719 1088.5 C 1293.90625 1090.65625 1293.042969 1091.820312 1291.824219 1094.429688 C 1289.132812 1100.207031 1285.316406 1105.3125 1281.304688 1110.242188 C 1279.863281 1112.078125 1278.808594 1113.785156 1277.699219 1115.820312 C 1275.898438 1118.902344 1275.898438 1118.902344 1273.109375 1120.761719 C 1272.445312 1122.316406 1272.445312 1122.316406 1271.769531 1123.902344 C 1270.320312 1127.269531 1269.171875 1128.507812 1266.597656 1130.992188 C 1263.226562 1134.984375 1259.894531 1139.035156 1257.066406 1143.433594 C 1255.460938 1145.835938 1253.785156 1147.585938 1251.71875 1149.59375 C 1248.488281 1153.136719 1245.796875 1156.628906 1243.347656 1160.753906 C 1242.125 1162.015625 1240.886719 1163.253906 1239.625 1164.476562 C 1238.972656 1165.320312 1238.320312 1166.164062 1237.648438 1167.03125 C 1237.074219 1167.722656 1236.5 1168.414062 1235.90625 1169.125 C 1235.292969 1169.125 1234.679688 1169.125 1234.046875 1169.125 C 1233.800781 1169.664062 1233.558594 1170.199219 1233.308594 1170.753906 C 1230.890625 1175.261719 1227.167969 1179.105469 1223.175781 1182.261719 C 1220.871094 1183.945312 1220.871094 1183.945312 1219.339844 1186.621094 C 1217.566406 1189.203125 1216.230469 1190.605469 1213.875 1192.550781 C 1210.6875 1195.214844 1208.148438 1198.078125 1205.5625 1201.328125 C 1202.589844 1205.0625 1199.8125 1208.21875 1195.914062 1210.976562 C 1195.300781 1210.976562 1194.6875 1210.976562 1194.054688 1210.976562 C 1194.054688 1211.589844 1194.054688 1212.207031 1194.054688 1212.835938 C 1192.65625 1214.246094 1192.65625 1214.246094 1190.742188 1215.859375 C 1190.0625 1216.4375 1189.386719 1217.015625 1188.6875 1217.609375 C 1188.003906 1218.183594 1187.320312 1218.757812 1186.613281 1219.347656 C 1182.265625 1223.035156 1178.160156 1226.777344 1174.230469 1230.914062 C 1171.855469 1233.179688 1169.464844 1234.996094 1166.753906 1236.824219 C 1165.164062 1237.933594 1165.164062 1237.933594 1163.738281 1239.429688 C 1162.433594 1240.738281 1162.433594 1240.738281 1160.6875 1241.554688 C 1158.503906 1242.585938 1158.503906 1242.585938 1156.445312 1244.867188 C 1154.183594 1247.125 1152.125 1248.410156 1149.410156 1250.039062 C 1148.664062 1250.789062 1147.914062 1251.535156 1147.144531 1252.308594 C 1144.671875 1254.777344 1142.101562 1256.507812 1139.179688 1258.410156 C 1138.683594 1258.910156 1138.183594 1259.40625 1137.667969 1259.921875 C 1136.390625 1261.199219 1136.390625 1261.199219 1134.53125 1262.015625 C 1132.464844 1262.957031 1132.464844 1262.957031 1131.449219 1265.328125 C 1129.3125 1268.574219 1126.929688 1269.054688 1123.371094 1270.5 C 1121.476562 1272.007812 1119.613281 1273.558594 1117.789062 1275.152344 C 1115.953125 1276.425781 1114.09375 1277.667969 1112.207031 1278.871094 C 1111 1279.648438 1111 1279.648438 1109.765625 1280.441406 C 1107.558594 1281.660156 1107.558594 1281.660156 1105.523438 1282.070312 C 1104.96875 1282.242188 1104.410156 1282.414062 1103.839844 1282.59375 C 1103.59375 1283.167969 1103.347656 1283.742188 1103.09375 1284.335938 C 1101.609375 1286.96875 1100.066406 1287.488281 1097.328125 1288.695312 C 1093.445312 1290.40625 1093.445312 1290.40625 1090.816406 1293.753906 C 1089.203125 1294.707031 1089.203125 1294.707031 1087.328125 1295.554688 C 1084.875 1296.714844 1082.800781 1297.859375 1080.527344 1299.390625 C 1078.398438 1300.796875 1076.6875 1301.714844 1074.367188 1302.644531 C 1071.382812 1303.695312 1071.382812 1303.695312 1070.015625 1305.347656 C 1067.4375 1307.765625 1064.085938 1308.371094 1060.769531 1309.414062 C 1058.183594 1310.339844 1058.183594 1310.339844 1056.4375 1312.355469 C 1054.0625 1314.6875 1052.03125 1315.230469 1048.847656 1316.132812 C 1044.394531 1317.269531 1044.394531 1317.269531 1041.523438 1320.722656 C 1039.609375 1321.574219 1039.609375 1321.574219 1037.398438 1322.234375 C 1036.671875 1322.457031 1035.941406 1322.679688 1035.191406 1322.910156 C 1034.519531 1323.109375 1033.847656 1323.308594 1033.15625 1323.515625 C 1032.234375 1323.820312 1031.3125 1324.128906 1030.363281 1324.445312 C 1030.058594 1325.363281 1029.75 1326.285156 1029.433594 1327.234375 C 1027.128906 1328.191406 1027.128906 1328.191406 1024.203125 1329.035156 C 1020.855469 1330.074219 1017.785156 1331.046875 1014.785156 1332.871094 C 1012.417969 1334.285156 1010.539062 1335.179688 1007.984375 1336.070312 C 1005.464844 1336.953125 1003.984375 1337.710938 1001.765625 1339.324219 C 998.730469 1341.191406 996.546875 1341.808594 993.105469 1342.582031 C 988.859375 1343.511719 988.859375 1343.511719 985.257812 1345.835938 C 982.007812 1348.4375 978.628906 1348.851562 974.59375 1349.644531 C 971.65625 1350.367188 971.65625 1350.367188 969.070312 1352.3125 C 965.855469 1354.425781 962.800781 1355.300781 959.097656 1356.125 C 954.515625 1357.054688 954.515625 1357.054688 950.492188 1359.304688 C 948.144531 1360.984375 946.332031 1361.382812 943.503906 1361.90625 C 942.054688 1362.191406 942.054688 1362.191406 940.574219 1362.476562 C 939.570312 1362.664062 938.566406 1362.851562 937.535156 1363.042969 C 929.957031 1364.316406 929.957031 1364.316406 922.742188 1366.824219 C 919.023438 1368.445312 915.542969 1368.953125 911.550781 1369.492188 C 906.792969 1370.203125 902.410156 1370.945312 897.949219 1372.808594 C 892.441406 1375.066406 886.738281 1375.671875 880.863281 1376.328125 C 877.042969 1376.800781 874.085938 1377.324219 870.769531 1379.316406 C 865.53125 1382.179688 859.496094 1382.070312 853.660156 1382.4375 C 850.109375 1382.664062 846.5625 1382.945312 843.015625 1383.234375 C 842.320312 1383.289062 841.625 1383.347656 840.910156 1383.40625 C 834.703125 1383.941406 828.664062 1384.957031 822.605469 1386.425781 C 810.785156 1389.226562 798.261719 1388.859375 786.167969 1389.140625 C 785.363281 1389.160156 784.558594 1389.179688 783.730469 1389.199219 C 761.273438 1389.730469 738.820312 1389.804688 716.363281 1389.25 C 714.992188 1389.21875 713.625 1389.1875 712.257812 1389.15625 C 701.304688 1388.910156 690.632812 1387.839844 679.878906 1385.695312 C 674.015625 1384.527344 668.253906 1383.675781 662.285156 1383.25 C 661.601562 1383.199219 660.921875 1383.152344 660.21875 1383.101562 C 657.441406 1382.910156 654.664062 1382.726562 651.882812 1382.566406 C 643.347656 1382.054688 636.328125 1380.976562 628.371094 1377.566406 C 624.976562 1376.199219 622.167969 1375.851562 618.523438 1375.597656 C 612.5625 1375.050781 607.28125 1373.691406 601.621094 1371.773438 C 597.214844 1370.308594 592.875 1369.332031 588.296875 1368.5625 C 583.125 1367.691406 578.457031 1366.359375 573.589844 1364.410156 C 569.148438 1362.90625 564.542969 1362.230469 559.929688 1361.46875 C 556.816406 1360.679688 556.273438 1360.140625 554.175781 1357.925781 C 551.472656 1356.914062 551.472656 1356.914062 548.421875 1356.125 C 544.851562 1355.089844 541.5625 1354.085938 538.308594 1352.289062 C 535.332031 1350.671875 532.484375 1349.894531 529.183594 1349.148438 C 524.46875 1348.070312 520.695312 1346.382812 516.460938 1344.089844 C 514.035156 1342.976562 511.875 1342.492188 509.242188 1342.058594 C 505.195312 1341.386719 503.410156 1340.101562 500.234375 1337.464844 C 498.601562 1336.820312 496.953125 1336.226562 495.292969 1335.664062 C 491.195312 1334.265625 487.855469 1332.566406 484.265625 1330.171875 C 481.679688 1328.539062 478.867188 1327.480469 476.050781 1326.304688 C 474.441406 1325.367188 472.832031 1324.429688 471.226562 1323.484375 C 468.898438 1322.238281 466.476562 1321.398438 463.992188 1320.519531 C 462.058594 1319.777344 460.273438 1318.894531 458.441406 1317.933594 C 455.046875 1316.175781 451.601562 1314.972656 447.949219 1313.855469 C 446.289062 1313.285156 446.289062 1313.285156 445.359375 1312.355469 C 443.714844 1312.238281 442.066406 1312.191406 440.417969 1312.179688 C 439.074219 1312.160156 439.074219 1312.160156 437.699219 1312.140625 C 435.1875 1312.183594 435.1875 1312.183594 433.398438 1313.238281 C 429.921875 1314.941406 425.945312 1314.921875 422.128906 1315.257812 C 416.640625 1315.832031 412.773438 1317.648438 408.160156 1320.722656 C 406.195312 1321.21875 406.195312 1321.21875 403.941406 1321.589844 C 403.117188 1321.730469 402.292969 1321.875 401.441406 1322.019531 C 400.570312 1322.167969 399.699219 1322.316406 398.800781 1322.46875 C 392.742188 1323.546875 387.269531 1324.714844 381.65625 1327.296875 C 377.902344 1328.695312 373.976562 1329.222656 370.042969 1329.890625 C 365.261719 1330.730469 360.851562 1332.0625 356.273438 1333.707031 C 351.925781 1335.113281 347.488281 1336.078125 343.019531 1337.015625 C 339.96875 1337.683594 337.546875 1338.355469 334.757812 1339.820312 C 330.328125 1341.933594 325.722656 1342.222656 320.886719 1342.792969 C 317.015625 1343.316406 313.914062 1343.976562 310.472656 1345.863281 C 306.476562 1348.042969 302.789062 1348.398438 298.296875 1348.683594 C 292.191406 1349.097656 287.160156 1349.648438 282.601562 1354.207031 C 280.832031 1354.699219 280.832031 1354.699219 278.675781 1355.070312 C 277.890625 1355.214844 277.105469 1355.355469 276.296875 1355.503906 C 275.460938 1355.652344 274.625 1355.796875 273.765625 1355.949219 C 266.324219 1357.289062 266.324219 1357.289062 259.234375 1359.84375 C 254.375 1362.066406 249.332031 1362.597656 244.09375 1363.371094 C 239.402344 1364.097656 235.484375 1365.273438 231.15625 1367.253906 C 227.734375 1368.488281 224.28125 1368.992188 220.695312 1369.550781 C 215.5625 1370.355469 211.335938 1371.371094 206.6875 1373.761719 C 202.597656 1375.433594 198.171875 1375.980469 193.828125 1376.707031 C 190.308594 1377.507812 186.640625 1378.550781 184.015625 1381.175781 C 182.730469 1381.398438 181.4375 1381.566406 180.144531 1381.714844 C 170.996094 1382.835938 162.707031 1384.261719 154.039062 1387.445312 C 149.304688 1389.03125 144.5 1390.042969 139.605469 1391.007812 C 136.335938 1391.671875 133.601562 1392.421875 130.515625 1393.773438 C 126.859375 1395.304688 123.636719 1395.828125 119.726562 1396.234375 C 119.085938 1396.308594 118.441406 1396.386719 117.78125 1396.464844 C 114.433594 1396.84375 111.121094 1397.171875 107.75 1396.988281 C 106.820312 1396.058594 106.820312 1396.058594 106.804688 1392.566406 C 106.863281 1391.074219 106.925781 1389.585938 106.996094 1388.09375 C 107.011719 1387.363281 107.03125 1386.632812 107.046875 1385.875 C 107.273438 1381.117188 108.257812 1377.902344 110.554688 1373.757812 C 112.167969 1370.449219 112.683594 1366.929688 113.332031 1363.332031 C 114.546875 1357.070312 116.058594 1351.082031 118.042969 1345.015625 C 118.992188 1341.84375 119.660156 1338.675781 120.308594 1335.429688 C 121.082031 1331.601562 121.96875 1328.183594 123.5625 1324.617188 C 125.40625 1320.40625 126.113281 1316.28125 126.816406 1311.773438 C 127.582031 1306.878906 128.488281 1302.863281 131.03125 1298.59375 C 132.609375 1295 133.019531 1291.082031 133.660156 1287.230469 C 134.4375 1282.734375 135.695312 1278.941406 137.542969 1274.800781 C 138.683594 1271.707031 139.257812 1268.5625 139.839844 1265.328125 C 140.558594 1261.398438 141.230469 1257.992188 143.09375 1254.457031 C 145.554688 1249.582031 145.984375 1244.242188 146.613281 1238.878906 C 147.210938 1234.265625 148.347656 1230.867188 150.566406 1226.792969 C 152.117188 1223.570312 152.667969 1220.164062 153.324219 1216.675781 C 154.253906 1212.101562 155.148438 1207.800781 157.101562 1203.539062 C 159.289062 1198.652344 159.90625 1193.550781 160.566406 1188.277344 C 161.074219 1184.613281 161.78125 1181.714844 163.558594 1178.453125 C 165.742188 1174.40625 166.238281 1170.566406 166.75 1166.042969 C 167.582031 1159.835938 168.839844 1154.828125 171.746094 1149.222656 C 173.445312 1145.511719 174.121094 1141.648438 174.953125 1137.667969 C 175.597656 1134.914062 176.429688 1132.40625 177.445312 1129.773438 C 179.269531 1125.015625 180.503906 1120.175781 181.6875 1115.230469 C 182.65625 1111.203125 183.785156 1107.269531 185.0625 1103.324219 C 186.585938 1098.539062 187.464844 1093.851562 188.199219 1088.890625 C 188.851562 1085.332031 190.082031 1082.253906 191.457031 1078.910156 C 192.351562 1075.980469 192.566406 1073.253906 192.617188 1070.191406 C 192.640625 1069.339844 192.667969 1068.488281 192.691406 1067.613281 C 192.316406 1064.347656 191.183594 1062.25 189.597656 1059.378906 C 188.507812 1057.230469 187.425781 1055.078125 186.339844 1052.925781 C 185.792969 1051.84375 185.246094 1050.761719 184.683594 1049.644531 C 183.113281 1046.414062 181.691406 1043.160156 180.296875 1039.847656 C 178.5 1036.019531 178.5 1036.019531 176.140625 1032.539062 C 174.121094 1029.714844 173.15625 1026.667969 171.984375 1023.421875 C 171.140625 1021.222656 171.140625 1021.222656 169.566406 1019.847656 C 167.769531 1018.011719 167.472656 1016.402344 166.867188 1013.921875 C 166.054688 1010.976562 165.5625 1009.339844 163.613281 1006.949219 C 160.996094 1003.617188 160.15625 1000.070312 158.902344 996.058594 C 158.132812 993.8125 157.355469 992.03125 156.113281 990.03125 C 154.046875 986.480469 152.785156 982.953125 151.488281 979.066406 C 150.613281 976.570312 150.613281 976.570312 149.140625 974.398438 C 147.402344 971.359375 146.707031 968.4375 145.882812 965.035156 C 145.039062 961.542969 144.25 958.449219 142.628906 955.238281 C 140.683594 951.316406 139.886719 947.304688 138.945312 943.050781 C 138.238281 940.011719 137.503906 937.527344 136.085938 934.71875 C 134.003906 930.507812 133.558594 926.109375 132.808594 921.503906 C 131.996094 918.261719 130.832031 916.160156 129.105469 913.351562 C 127.261719 909.535156 126.941406 905.253906 126.351562 901.09375 C 125.53125 895.394531 124.566406 890.039062 122.636719 884.597656 C 120.585938 878.757812 119.664062 872.976562 118.855469 866.859375 C 118.046875 860.917969 117.207031 855.113281 115.628906 849.320312 C 113.90625 842.746094 113.429688 836.125 112.925781 829.367188 C 112.226562 819.417969 112.226562 819.417969 110.566406 809.597656 C 106.683594 791.828125 107.183594 773.859375 107.265625 755.765625 C 107.289062 750.996094 107.273438 746.230469 107.253906 741.460938 C 107.175781 721.496094 107.722656 702.261719 111.058594 682.539062 C 111.644531 678.832031 112 675.128906 112.28125 671.386719 C 112.417969 669.617188 112.417969 669.617188 112.554688 667.8125 C 112.636719 666.667969 112.722656 665.519531 112.808594 664.339844 C 113.710938 653.019531 115.433594 642.058594 117.867188 630.960938 C 119.011719 625.71875 119.6875 620.515625 120.164062 615.164062 C 120.710938 612.34375 121.472656 610.246094 122.601562 607.632812 C 124.695312 602.621094 125.304688 597.859375 125.828125 592.492188 C 126.570312 586.113281 127.335938 580.996094 130.699219 575.4375 C 133.480469 569.84375 134.53125 563.445312 136.039062 557.410156 C 137.269531 552.617188 138.78125 547.90625 140.304688 543.199219 C 140.660156 542.089844 140.660156 542.089844 141.023438 540.960938 C 142.5625 536.257812 144.265625 531.621094 145.976562 526.976562 C 146.894531 524.464844 146.894531 524.464844 147.683594 521.285156 C 148.8125 517.636719 150.4375 514.472656 152.183594 511.085938 C 153.453125 508.527344 154.460938 505.957031 155.417969 503.269531 C 156.226562 501.03125 157.128906 498.839844 158.03125 496.636719 C 159.144531 493.90625 160.011719 491.367188 160.765625 488.5 C 161.695312 485.535156 161.695312 485.535156 163.496094 483.445312 C 165.507812 480.765625 165.980469 479.097656 166.75 475.886719 C 167.777344 471.703125 169.101562 468.96875 171.757812 465.621094 C 173.136719 463.769531 173.925781 461.765625 174.773438 459.628906 C 177.820312 452.65625 181.757812 446.066406 185.890625 439.691406 C 186.976562 437.933594 186.976562 437.933594 187.792969 435.082031 C 188.664062 432.523438 188.664062 432.523438 190.410156 430.894531 C 193.003906 428.148438 193.863281 425.238281 195.171875 421.734375 C 196.3125 419.011719 197.875 417.054688 199.828125 414.851562 C 200.761719 413.304688 201.691406 411.753906 202.617188 410.203125 C 203.386719 409.132812 204.160156 408.066406 204.941406 407.003906 C 206.371094 405.035156 207.46875 403.277344 208.546875 401.074219 C 210.785156 396.6875 213.710938 392.8125 216.566406 388.8125 C 218.519531 385.992188 220.234375 383.34375 221.742188 380.265625 C 223 377.800781 223.960938 376.761719 225.867188 374.859375 C 227.132812 373.234375 228.371094 371.582031 229.589844 369.917969 C 230.222656 369.058594 230.855469 368.199219 231.507812 367.3125 C 233.296875 364.644531 234.667969 361.921875 236.097656 359.050781 C 238.308594 356.664062 238.308594 356.664062 240.75 354.398438 C 244.101562 351.210938 246.574219 348.023438 249.121094 344.167969 C 250.359375 342.929688 251.597656 341.6875 252.839844 340.449219 C 253.664062 339.351562 254.476562 338.246094 255.28125 337.132812 C 258.410156 332.863281 261.980469 329.058594 265.609375 325.207031 C 267.578125 322.941406 269.003906 320.707031 270.511719 318.125 C 272.042969 316.558594 273.589844 315.003906 275.160156 313.476562 C 275.46875 312.863281 275.773438 312.25 276.089844 311.617188 C 276.839844 311.195312 277.585938 310.773438 278.359375 310.335938 C 280.824219 309.0625 280.824219 309.0625 281.671875 306.964844 C 282.949219 304.414062 284.839844 303.761719 287.25 302.316406 C 287.886719 301.082031 288.507812 299.84375 289.113281 298.59375 C 290.632812 297.320312 292.1875 296.082031 293.761719 294.875 C 296.261719 292.5 298.527344 290.085938 300.738281 287.433594 C 302.941406 284.789062 305.25 282.394531 307.710938 279.996094 C 308.328125 279.378906 308.941406 278.765625 309.574219 278.132812 C 310.1875 277.519531 310.800781 276.90625 311.433594 276.273438 C 312.160156 275.507812 312.890625 274.738281 313.640625 273.949219 C 316.164062 271.546875 318.769531 269.832031 321.664062 267.902344 C 326.355469 264.039062 330.742188 259.933594 334.859375 255.464844 C 337.082031 253.390625 339.125 251.871094 341.660156 250.234375 C 345.039062 248.046875 347.714844 245.71875 350.496094 242.792969 C 354.3125 239.300781 358.25 236.324219 362.585938 233.492188 C 367.730469 229.863281 372.761719 226.132812 377.640625 222.15625 C 380.949219 219.46875 384.296875 217.121094 387.984375 214.988281 C 389.605469 214.007812 389.605469 214.007812 390.898438 212.582031 C 393.167969 210.371094 395.921875 209.164062 398.710938 207.710938 C 400.730469 206.628906 400.730469 206.628906 402.121094 205.09375 C 403.808594 203.4375 405.386719 202.796875 407.578125 201.929688 C 411.066406 200.449219 413.589844 198.699219 416.527344 196.289062 C 418.261719 195.40625 420 194.527344 421.753906 193.6875 C 427.941406 190.5625 433.835938 186.835938 439.78125 183.269531 C 445.851562 179.644531 451.933594 176.179688 458.289062 173.085938 C 460.339844 172.097656 460.339844 172.097656 462.566406 170.65625 C 465.585938 168.917969 468.761719 167.761719 472.003906 166.5 C 474.457031 165.488281 476.601562 164.222656 478.84375 162.808594 C 480.671875 161.875 482.515625 160.96875 484.363281 160.074219 C 486.363281 159.082031 486.363281 159.082031 488.472656 157.6875 C 491.207031 156.140625 493.78125 155.339844 496.804688 154.496094 C 501.058594 153.238281 504.863281 151.828125 508.761719 149.730469 C 511.15625 148.503906 513.652344 147.636719 516.183594 146.726562 C 518.082031 146.035156 518.082031 146.035156 520.460938 144.730469 C 524.132812 142.964844 527.886719 141.769531 531.765625 140.542969 C 534.726562 139.574219 534.726562 139.574219 537.804688 138.15625 C 541.273438 136.71875 544.714844 135.792969 548.363281 134.964844 C 552.722656 133.929688 556.914062 132.820312 561.09375 131.1875 C 566.140625 129.234375 571.292969 128.054688 576.570312 126.902344 C 579.257812 126.308594 581.816406 125.714844 584.359375 124.644531 C 587.816406 123.332031 591.332031 123.007812 594.984375 122.523438 C 600.675781 121.710938 605.859375 120.617188 611.257812 118.628906 C 617.578125 116.355469 623.71875 115.371094 630.371094 114.53125 C 635.761719 113.84375 641.003906 112.890625 646.308594 111.710938 C 656.660156 109.472656 667.171875 108.5 677.695312 107.453125 C 678.390625 107.382812 679.089844 107.3125 679.804688 107.238281 C 681.703125 107.042969 683.597656 106.859375 685.496094 106.671875 C 688.035156 106.386719 690.449219 105.964844 692.941406 105.40625 C 704.882812 102.78125 716.644531 102.878906 728.832031 102.914062 Z M 728.832031 102.914062 " fill-opacity="1" fill-rule="nonzero"/></g><path fill="#ffffff" d="M 531.738281 450.019531 C 533.019531 450.027344 534.304688 450.035156 535.585938 450.042969 C 542.871094 450.09375 550.152344 450.226562 557.433594 450.542969 C 558.511719 450.585938 558.511719 450.585938 559.613281 450.628906 C 563.984375 450.867188 567.765625 451.46875 571.847656 452.984375 C 573.359375 455.65625 573.359375 455.65625 574.636719 458.566406 C 575.703125 459.371094 575.703125 459.371094 576.789062 460.191406 C 582.832031 465.25 585.664062 473.074219 588.425781 480.269531 C 589.394531 482.738281 589.394531 482.738281 590.933594 484.550781 C 593.324219 487.875 593.976562 491.859375 595.042969 495.769531 C 595.785156 498.515625 595.785156 498.515625 597.410156 499.902344 C 599.03125 501.5625 599.425781 502.691406 600.011719 504.914062 C 600.199219 505.597656 600.386719 506.28125 600.582031 506.984375 C 600.859375 508.050781 600.859375 508.050781 601.144531 509.136719 C 602.386719 513.835938 603.65625 517.660156 606.261719 521.808594 C 607.265625 524.625 608.125 527.464844 608.992188 530.328125 C 609.832031 532.957031 609.832031 532.957031 611.378906 534.808594 C 613.191406 537.261719 613.769531 539.625 614.570312 542.558594 C 616.03125 547.570312 616.03125 547.570312 618.351562 552.210938 C 620.335938 555.5 621.679688 558.773438 623.058594 562.347656 C 623.785156 564.21875 624.578125 566.066406 625.382812 567.902344 C 626.414062 570.371094 627.261719 572.746094 628.058594 575.285156 C 629.097656 578.515625 630.488281 581.148438 632.265625 584.050781 C 634.035156 587.585938 634.972656 591.417969 636.070312 595.210938 C 636.769531 597.476562 637.527344 599.449219 638.578125 601.558594 C 641.417969 608.941406 639.308594 615.355469 636.371094 622.371094 C 636.0625 623.164062 635.753906 623.960938 635.4375 624.777344 C 633.550781 629.414062 631.453125 632.984375 627.980469 636.601562 C 626.589844 638.21875 625.8125 639.882812 624.859375 641.785156 C 624.246094 642.226562 623.632812 642.667969 623 643.121094 C 620.691406 644.925781 620.332031 646.527344 619.28125 649.226562 C 618.0625 650.484375 616.820312 651.722656 615.558594 652.945312 C 615.023438 653.78125 614.484375 654.613281 613.933594 655.472656 C 611.210938 659.445312 607.984375 662.746094 604.628906 666.183594 C 601.851562 669.101562 600.199219 671.417969 598.820312 675.265625 C 597.28125 676.214844 595.730469 677.144531 594.167969 678.058594 C 592.640625 680.347656 592.640625 680.347656 591.378906 682.707031 C 590.898438 683.128906 590.417969 683.550781 589.925781 683.984375 C 586.703125 687.628906 586.417969 692.800781 586.546875 697.484375 C 587.027344 702.691406 588.296875 707.699219 590.449219 712.46875 C 591.0625 712.46875 591.675781 712.46875 592.308594 712.46875 C 592.523438 712.988281 592.738281 713.503906 592.960938 714.039062 C 594.855469 718.472656 596.96875 722.519531 599.601562 726.558594 C 600.679688 728.28125 600.679688 728.28125 602.191406 731.359375 C 603.289062 733.820312 603.289062 733.820312 604.863281 735.253906 C 606.261719 736.652344 606.261719 736.652344 607.539062 739.265625 C 608.976562 742.355469 608.976562 742.355469 611.433594 745.078125 C 613.699219 747.8125 613.699219 747.8125 614.6875 750.367188 C 615.339844 752.597656 615.339844 752.597656 617.304688 753.273438 C 619.929688 754.664062 620.714844 756.648438 622.0625 759.214844 C 623.296875 761.34375 624.960938 762.851562 626.722656 764.550781 C 627.152344 765.445312 627.152344 765.445312 627.59375 766.355469 C 628.558594 768.46875 628.558594 768.46875 630.730469 770.421875 C 632.664062 772.355469 634.085938 774.023438 635.613281 776.234375 C 637.410156 778.824219 639.296875 780.992188 641.601562 783.152344 C 644.792969 786.183594 647.363281 789.21875 649.777344 792.871094 C 650.992188 794.585938 650.992188 794.585938 653.691406 796.175781 C 654.132812 796.921875 654.574219 797.671875 655.03125 798.441406 C 656.3125 800.875 656.3125 800.875 658.34375 802.21875 C 660.203125 803.613281 660.203125 803.613281 661.65625 806.054688 C 662.839844 808.546875 662.839844 808.546875 665.785156 809.195312 C 666.207031 810.078125 666.628906 810.960938 667.0625 811.867188 C 668.777344 815.164062 670.050781 815.820312 673.222656 817.566406 C 674.160156 818.800781 675.089844 820.039062 676.015625 821.285156 C 676.648438 821.574219 677.28125 821.859375 677.933594 822.15625 C 679.734375 823.144531 679.734375 823.144531 680.546875 825.46875 C 680.894531 826.238281 681.238281 827.003906 681.59375 827.796875 C 683.441406 828.453125 685.304688 829.070312 687.175781 829.65625 C 689.578125 831.828125 691.671875 834.132812 693.800781 836.574219 C 697.019531 839.441406 700.425781 841.195312 704.269531 843.117188 C 706.78125 844.582031 708.429688 846.15625 710.425781 848.257812 C 713.15625 850.503906 715.984375 852.625 718.796875 854.765625 C 719.433594 855.273438 720.074219 855.777344 720.734375 856.296875 C 724.335938 859.105469 727.859375 861.320312 732.039062 863.179688 C 733.867188 864.171875 735.003906 865.390625 736.46875 866.859375 C 738.105469 867.8125 738.105469 867.8125 739.898438 868.601562 C 743.914062 870.527344 747.601562 872.832031 751.347656 875.226562 C 752.894531 876.164062 754.445312 877.09375 756 878.019531 C 757.0625 878.679688 757.0625 878.679688 758.148438 879.355469 C 760.820312 880.90625 763.550781 882.265625 766.320312 883.628906 C 768.089844 884.527344 768.089844 884.527344 770.355469 885.925781 C 773.117188 887.539062 775.949219 888.796875 778.878906 890.070312 C 780.355469 890.710938 781.820312 891.367188 783.28125 892.039062 C 787.46875 893.960938 791.523438 895.480469 795.992188 896.621094 C 795.992188 897.234375 795.992188 897.847656 795.992188 898.480469 C 799.320312 899.859375 802.667969 901.003906 806.105469 902.082031 C 809.433594 903.175781 812.464844 904.28125 815.464844 906.09375 C 822.519531 910.269531 833.265625 909.671875 841.234375 908.28125 C 845.863281 906.730469 849.28125 903.671875 852.722656 900.339844 C 853.511719 899.59375 854.296875 898.84375 855.105469 898.074219 C 857.375 895.6875 859.515625 893.234375 861.625 890.710938 C 862.953125 889.179688 862.953125 889.179688 864.460938 887.707031 C 865.863281 886.417969 865.863281 886.417969 866.617188 884.472656 C 867.605469 882.667969 867.605469 882.667969 869.347656 881.855469 C 871.640625 880.640625 872.519531 879.238281 873.867188 877.066406 C 875.410156 874.660156 877.082031 872.367188 878.765625 870.054688 C 879.378906 869.210938 879.992188 868.363281 880.625 867.492188 C 881.890625 865.796875 883.191406 864.125 884.523438 862.476562 C 886.238281 860.484375 886.238281 860.484375 887.078125 858.429688 C 888.445312 855.9375 890.511719 854.671875 892.714844 852.90625 C 893.351562 851.675781 893.972656 850.433594 894.578125 849.1875 C 895.265625 848.515625 895.957031 847.84375 896.667969 847.152344 C 898.851562 844.921875 900.34375 842.949219 902.015625 840.351562 C 905.125 835.554688 909.191406 829.921875 914.917969 828.203125 C 924.371094 826.261719 933.605469 829.171875 942.007812 833.375 C 943.882812 833.847656 945.761719 834.289062 947.648438 834.714844 C 952.058594 835.746094 954.320312 837.015625 957.820312 839.886719 C 959.492188 840.378906 961.179688 840.820312 962.878906 841.222656 C 967.550781 842.371094 970.011719 844.101562 973.632812 847.328125 C 976.347656 848.75 979.167969 849.886719 982 851.046875 C 983.4375 851.683594 984.871094 852.320312 986.304688 852.964844 C 988.753906 854.058594 991.210938 855.121094 993.683594 856.164062 C 996.058594 857.199219 998.3125 858.285156 1000.601562 859.476562 C 1003.082031 860.75 1005.058594 861.472656 1007.808594 862.207031 C 1011.199219 863.25 1012.097656 864.402344 1014.554688 866.859375 C 1016.621094 867.882812 1018.714844 868.765625 1020.859375 869.621094 C 1022.921875 870.578125 1022.921875 870.578125 1024.730469 872.003906 C 1027.65625 874.09375 1030.84375 874.515625 1034.3125 875.28125 C 1037.320312 876.3125 1039.09375 877.851562 1041.523438 879.878906 C 1047.863281 883.476562 1054.546875 886.316406 1061.34375 888.925781 C 1064.097656 890.226562 1066.132812 891.925781 1068.496094 893.828125 C 1069.628906 894.175781 1070.761719 894.519531 1071.925781 894.875 C 1075.007812 896.621094 1075.007812 896.621094 1075.707031 898.453125 C 1076.796875 904.507812 1077.160156 910.351562 1077.097656 916.5 C 1077.09375 917.441406 1077.085938 918.386719 1077.082031 919.355469 C 1076.941406 929.386719 1075.253906 937.976562 1072.160156 947.496094 C 1071.277344 950.601562 1070.777344 953.585938 1070.355469 956.78125 C 1069.71875 961.484375 1068.550781 965.390625 1066.632812 969.714844 C 1065.667969 972.046875 1065.046875 974.335938 1064.425781 976.777344 C 1063.269531 980.839844 1061.542969 983.316406 1058.652344 986.347656 C 1056.945312 988.183594 1055.820312 990.269531 1054.546875 992.414062 C 1053.34375 993.695312 1052.105469 994.933594 1050.824219 996.136719 C 1050.230469 996.730469 1049.636719 997.324219 1049.023438 997.9375 C 1048.390625 998.570312 1047.757812 999.203125 1047.105469 999.855469 C 1046.355469 1000.640625 1045.609375 1001.429688 1044.839844 1002.238281 C 1042.453125 1004.507812 1042.453125 1004.507812 1039.957031 1005.960938 C 1037.695312 1007.089844 1037.695312 1007.089844 1036.957031 1009.128906 C 1035.726562 1011.425781 1034.824219 1011.820312 1032.457031 1012.816406 C 1028.757812 1014.519531 1026.03125 1016.742188 1022.921875 1019.386719 C 1021.757812 1020.089844 1020.574219 1020.765625 1019.378906 1021.421875 C 1016.367188 1022.769531 1016.367188 1022.769531 1015.484375 1024.96875 C 1013.671875 1025.949219 1011.824219 1026.871094 1009.960938 1027.757812 C 1005.898438 1029.636719 1005.898438 1029.636719 1002.460938 1032.40625 C 1000.167969 1033.394531 997.835938 1034.242188 995.496094 1035.105469 C 993.140625 1036.027344 993.140625 1036.027344 991.289062 1037.558594 C 988.605469 1039.53125 985.78125 1040.035156 982.589844 1040.832031 C 980.015625 1041.613281 980.015625 1041.613281 977.757812 1043.527344 C 955.472656 1056.773438 912.253906 1050.121094 887.660156 1047.578125 C 886.957031 1047.511719 886.257812 1047.441406 885.535156 1047.371094 C 877.480469 1046.550781 870.253906 1045.066406 862.746094 1041.863281 C 860.28125 1040.828125 857.851562 1040.039062 855.28125 1039.324219 C 852.324219 1038.484375 849.671875 1037.472656 846.910156 1036.128906 C 842.335938 1033.976562 837.621094 1033.175781 832.664062 1032.320312 C 829.582031 1031.507812 827.390625 1030.273438 824.695312 1028.628906 C 821.597656 1027.070312 818.289062 1026.75 814.882812 1026.304688 C 810.3125 1025.691406 807.105469 1025.066406 803.429688 1022.175781 C 801.136719 1021.519531 798.894531 1020.949219 796.570312 1020.433594 C 791.140625 1019.117188 787.933594 1017.648438 783.898438 1013.804688 C 781.835938 1012.757812 779.734375 1011.871094 777.59375 1010.984375 C 775.199219 1009.941406 773.007812 1008.625 770.757812 1007.300781 C 763.636719 1003.476562 755.558594 1000.925781 747.746094 998.925781 C 744.835938 997.996094 744.835938 997.996094 743.5625 996.679688 C 741.632812 994.800781 739.703125 994.039062 737.222656 992.996094 C 733.21875 991.246094 729.613281 989.28125 725.96875 986.886719 C 724.277344 985.777344 724.277344 985.777344 721.820312 984.917969 C 719.253906 983.847656 717.960938 982.28125 716.007812 980.324219 C 714.152344 979.378906 712.292969 978.449219 710.425781 977.535156 C 709.695312 976.921875 708.96875 976.308594 708.21875 975.675781 C 705.996094 973.984375 704.628906 973.332031 702.054688 972.476562 C 698.300781 971.171875 696.449219 969.269531 693.683594 966.375 C 688.890625 962.632812 684.59375 959.886719 678.804688 958.003906 C 677.214844 956.492188 675.664062 954.941406 674.152344 953.351562 C 672.320312 952.074219 670.457031 950.839844 668.574219 949.632812 C 666.980469 948.554688 665.390625 947.46875 663.808594 946.378906 C 663.039062 945.851562 662.265625 945.324219 661.472656 944.777344 C 659.273438 943.121094 659.273438 943.121094 657.269531 941.113281 C 655.644531 939.261719 655.644531 939.261719 653.285156 938.53125 C 650.171875 937.238281 648.539062 935.347656 646.253906 932.890625 C 642.644531 929.058594 638.777344 926.042969 634.511719 923.011719 C 633.277344 922.128906 632.042969 921.246094 630.8125 920.359375 C 630.273438 919.972656 629.730469 919.589844 629.175781 919.191406 C 625.644531 916.457031 622.914062 912.976562 620.039062 909.582031 C 617.503906 906.878906 615.371094 905.238281 611.839844 904.058594 C 611.4375 902.9375 611.4375 902.9375 611.027344 901.792969 C 609.65625 898.675781 608.402344 898.75 605.328125 897.550781 C 604.382812 896.011719 603.453125 894.460938 602.539062 892.898438 C 601 891.953125 599.449219 891.023438 597.890625 890.109375 C 596.640625 888.566406 595.398438 887.015625 594.167969 885.460938 C 593.25 885.152344 592.328125 884.84375 591.378906 884.527344 C 590.9375 883.628906 590.496094 882.726562 590.042969 881.796875 C 588.457031 878.6875 587.871094 878.445312 584.867188 877.089844 C 584.601562 876.492188 584.332031 875.898438 584.054688 875.285156 C 583.09375 873.082031 583.09375 873.082031 580.277344 872.03125 C 577.007812 870.363281 576.363281 869.066406 574.636719 865.929688 C 573.71875 865.238281 573.71875 865.238281 572.777344 864.53125 C 570.488281 862.816406 569.585938 860.9375 568.128906 858.488281 C 565.894531 856.136719 563.5625 853.917969 561.210938 851.6875 C 558.800781 849.160156 556.800781 846.523438 554.738281 843.714844 C 551.566406 839.53125 548.066406 835.636719 544.351562 831.921875 C 540.476562 828.046875 537.101562 824.339844 534.644531 819.425781 C 532.402344 817.058594 530.0625 814.839844 527.671875 812.625 C 524.816406 809.554688 522.835938 806.269531 520.695312 802.683594 C 515.859375 794.660156 515.859375 794.660156 509.535156 787.804688 C 508.527344 786.769531 508.527344 786.769531 507.5 785.710938 C 505.914062 784.015625 505.914062 784.015625 503.953125 783.152344 C 503.304688 781.574219 502.65625 779.992188 502.019531 778.410156 C 500.660156 775.597656 498.527344 773.429688 496.511719 771.0625 C 495.582031 769.203125 494.652344 767.34375 493.722656 765.480469 C 492.503906 764.222656 491.261719 762.980469 490.003906 761.761719 C 489.695312 761.128906 489.390625 760.496094 489.074219 759.84375 C 488.265625 757.917969 488.265625 757.917969 486.398438 756.878906 C 483.859375 754.789062 483 752.53125 481.632812 749.585938 C 480.734375 747.660156 480.734375 747.660156 478.84375 745.949219 C 476.613281 743.722656 475.59375 741.476562 474.257812 738.652344 C 472.617188 735.355469 470.59375 732.308594 468.613281 729.210938 C 467.675781 727.664062 466.746094 726.113281 465.820312 724.558594 C 465.378906 723.851562 464.9375 723.140625 464.484375 722.410156 C 462.933594 719.738281 461.574219 717.007812 460.210938 714.234375 C 459.289062 712.359375 459.289062 712.359375 457.917969 710.261719 C 456.160156 707.1875 455 703.984375 453.789062 700.660156 C 452.949219 698.5 452.949219 698.5 451.40625 697.183594 C 449.417969 695.109375 448.960938 692.941406 448.152344 690.207031 C 447.003906 686.226562 447.003906 686.226562 444.863281 682.746094 C 442.992188 680.136719 442.71875 677.71875 442.164062 674.570312 C 441.117188 669.183594 441.117188 669.183594 438.910156 664.222656 C 436.566406 660.101562 435.671875 655.574219 434.648438 650.988281 C 434.507812 650.378906 434.371094 649.765625 434.226562 649.132812 C 434.050781 648.320312 434.050781 648.320312 433.871094 647.492188 C 433.257812 645.296875 433.257812 645.296875 431.882812 642.542969 C 430.1875 638.648438 429.75 634.867188 429.390625 630.660156 C 429.316406 629.855469 429.242188 629.054688 429.164062 628.226562 C 428.410156 619.238281 428.339844 610.25 428.378906 601.234375 C 428.386719 598.417969 428.378906 595.601562 428.367188 592.78125 C 428.359375 584.277344 428.519531 575.84375 429.421875 567.382812 C 429.492188 566.726562 429.558594 566.070312 429.628906 565.394531 C 430.304688 559.859375 431.949219 555.039062 433.992188 549.871094 C 435.046875 547.136719 435.824219 544.472656 436.523438 541.628906 C 437.917969 536.261719 440.1875 531.449219 442.570312 526.457031 C 443.0625 525.320312 443.546875 524.175781 444.023438 523.027344 C 445.042969 520.683594 446.113281 518.441406 447.277344 516.167969 C 448.4375 513.90625 449.253906 511.941406 450.011719 509.484375 C 451.078125 506.550781 452.441406 505.359375 454.660156 503.207031 C 455.101562 502.304688 455.542969 501.402344 456 500.476562 C 457.613281 497.308594 459.601562 495.476562 462.101562 492.976562 C 462.5625 492.035156 463.023438 491.097656 463.496094 490.128906 C 465.078125 487.03125 466.820312 485.769531 469.542969 483.675781 C 470.179688 482.445312 470.796875 481.203125 471.402344 479.957031 C 472.910156 478.367188 474.464844 476.816406 476.050781 475.304688 C 476.667969 474.691406 477.28125 474.078125 477.914062 473.445312 C 478.527344 472.832031 479.140625 472.21875 479.773438 471.585938 C 480.5 470.816406 481.230469 470.050781 481.980469 469.261719 C 484.492188 466.867188 487.113281 465.121094 490.003906 463.214844 C 490.558594 462.640625 491.117188 462.0625 491.6875 461.472656 C 496.558594 456.742188 501.9375 453.457031 508.605469 452.054688 C 509.222656 451.898438 509.839844 451.746094 510.476562 451.585938 C 517.566406 449.933594 524.488281 449.949219 531.738281 450.019531 Z M 531.738281 450.019531 " fill-opacity="1" fill-rule="nonzero"/><path fill="#ffffff" d="M 1209.382812 119.886719 C 1210.742188 119.835938 1210.742188 119.835938 1212.128906 119.785156 C 1213.25 119.722656 1213.25 119.722656 1214.394531 119.65625 C 1217.363281 120.207031 1218.34375 121.3125 1220.09375 123.746094 C 1220.53125 126.15625 1220.742188 128.191406 1220.789062 130.609375 C 1220.816406 131.300781 1220.84375 131.992188 1220.871094 132.703125 C 1220.949219 134.988281 1220.992188 137.269531 1221.023438 139.554688 C 1221.035156 140.328125 1221.046875 141.101562 1221.058594 141.898438 C 1221.117188 146.980469 1221.117188 152.058594 1221.09375 157.140625 C 1221.082031 160.015625 1221.078125 162.886719 1221.074219 165.761719 C 1221.058594 172.90625 1221.039062 180.054688 1221.015625 187.199219 C 1220.878906 216.988281 1220.878906 216.988281 1221.269531 246.773438 C 1221.300781 248.085938 1221.324219 249.394531 1221.347656 250.703125 C 1221.292969 262.015625 1221.292969 262.015625 1224.746094 272.554688 C 1229.785156 275.257812 1235.703125 274.691406 1241.277344 274.695312 C 1242.925781 274.707031 1242.925781 274.707031 1244.605469 274.71875 C 1247.613281 274.738281 1250.625 274.75 1253.632812 274.761719 C 1256.804688 274.769531 1259.980469 274.792969 1263.152344 274.8125 C 1269.183594 274.851562 1275.214844 274.882812 1281.242188 274.910156 C 1291.972656 274.957031 1302.703125 275.015625 1313.433594 275.082031 C 1317.777344 275.109375 1322.125 275.128906 1326.472656 275.144531 C 1337.394531 275.195312 1348.308594 275.320312 1359.222656 275.707031 C 1360.152344 275.734375 1361.082031 275.761719 1362.035156 275.792969 C 1363.316406 275.84375 1363.316406 275.84375 1364.621094 275.898438 C 1365.363281 275.925781 1366.105469 275.953125 1366.867188 275.980469 C 1369.167969 276.3125 1370.691406 276.84375 1372.625 278.132812 C 1373.652344 282.539062 1373.671875 286.90625 1373.675781 291.417969 C 1373.679688 292.402344 1373.679688 292.402344 1373.679688 293.410156 C 1373.683594 295.601562 1373.675781 297.796875 1373.671875 299.992188 C 1373.667969 300.75 1373.667969 301.511719 1373.667969 302.296875 C 1373.640625 317.746094 1373.40625 333.195312 1373.148438 348.644531 C 1373.128906 349.796875 1373.109375 350.949219 1373.09375 352.132812 C 1373.039062 355.414062 1372.980469 358.695312 1372.917969 361.972656 C 1372.894531 363.464844 1372.894531 363.464844 1372.871094 364.988281 C 1372.851562 365.894531 1372.832031 366.800781 1372.816406 367.738281 C 1372.792969 368.929688 1372.792969 368.929688 1372.769531 370.148438 C 1372.625 372.070312 1372.625 372.070312 1371.695312 373.929688 C 1363.820312 376.132812 1355.578125 376.058594 1347.472656 376.042969 C 1346.203125 376.046875 1344.9375 376.050781 1343.667969 376.058594 C 1340.964844 376.066406 1338.257812 376.074219 1335.554688 376.074219 C 1331.273438 376.074219 1326.992188 376.09375 1322.714844 376.113281 C 1312.09375 376.15625 1301.472656 376.1875 1290.851562 376.207031 C 1282.574219 376.222656 1274.296875 376.242188 1266.019531 376.28125 C 1261.765625 376.304688 1257.511719 376.3125 1253.257812 376.308594 C 1250.617188 376.308594 1247.976562 376.324219 1245.332031 376.339844 C 1243.527344 376.347656 1241.71875 376.339844 1239.914062 376.335938 C 1238.835938 376.34375 1237.757812 376.351562 1236.648438 376.363281 C 1235.714844 376.363281 1234.777344 376.367188 1233.816406 376.367188 C 1230.777344 376.785156 1229.066406 377.703125 1226.605469 379.511719 C 1223.265625 384.164062 1222.367188 387.601562 1222.625 393.335938 C 1222.648438 394.414062 1222.648438 394.414062 1222.671875 395.515625 C 1222.707031 397.089844 1222.753906 398.667969 1222.804688 400.246094 C 1222.886719 402.832031 1222.941406 405.421875 1222.988281 408.007812 C 1223.054688 411.902344 1223.132812 415.796875 1223.214844 419.6875 C 1223.695312 442.355469 1223.960938 465.027344 1224.03125 487.699219 C 1224.039062 490.707031 1224.058594 493.714844 1224.078125 496.722656 C 1224.105469 500.285156 1224.117188 503.847656 1224.117188 507.410156 C 1224.117188 508.726562 1224.125 510.042969 1224.136719 511.359375 C 1224.15625 513.171875 1224.152344 514.984375 1224.148438 516.800781 C 1224.148438 517.816406 1224.152344 518.832031 1224.15625 519.882812 C 1223.65625 524.058594 1222.324219 527.085938 1219.253906 529.996094 C 1212.859375 533.648438 1204.585938 533.269531 1197.433594 533.355469 C 1195.945312 533.382812 1195.945312 533.382812 1194.429688 533.410156 C 1191.242188 533.464844 1188.054688 533.507812 1184.871094 533.550781 C 1182.679688 533.585938 1180.492188 533.617188 1178.300781 533.652344 C 1173.015625 533.734375 1167.726562 533.800781 1162.441406 533.863281 C 1159.941406 533.894531 1157.441406 533.929688 1154.941406 533.964844 C 1151.296875 534.015625 1147.652344 534.046875 1144.003906 534.074219 C 1142.507812 534.089844 1142.507812 534.089844 1140.976562 534.109375 C 1136.015625 534.117188 1131.792969 533.816406 1127.089844 532.039062 C 1126.277344 531.742188 1125.46875 531.445312 1124.628906 531.140625 C 1122.097656 528.953125 1122.074219 528.5 1121.78125 525.308594 C 1121.722656 523.597656 1121.695312 521.886719 1121.683594 520.175781 C 1121.660156 519.234375 1121.636719 518.289062 1121.613281 517.320312 C 1121.550781 514.164062 1121.523438 511.011719 1121.507812 507.859375 C 1121.5 506.773438 1121.492188 505.691406 1121.484375 504.578125 C 1121.4375 497.394531 1121.457031 490.210938 1121.496094 483.03125 C 1121.519531 479.015625 1121.53125 475 1121.539062 470.984375 C 1121.570312 459.585938 1121.609375 448.1875 1121.667969 436.789062 C 1121.699219 430.449219 1121.722656 424.113281 1121.734375 417.773438 C 1121.742188 413.785156 1121.761719 409.796875 1121.789062 405.808594 C 1121.808594 402.757812 1121.808594 399.707031 1121.8125 396.652344 C 1121.828125 395.011719 1121.828125 395.011719 1121.847656 393.339844 C 1121.890625 385.992188 1121.890625 385.992188 1118.71875 379.511719 C 1115.277344 376.746094 1112.394531 376.296875 1108.046875 376.074219 C 1107.144531 376.027344 1107.144531 376.027344 1106.226562 375.980469 C 1097.570312 375.59375 1088.898438 375.78125 1080.238281 375.902344 C 1078.324219 375.925781 1076.414062 375.949219 1074.5 375.96875 C 1069.484375 376.027344 1064.46875 376.089844 1059.453125 376.15625 C 1054.441406 376.222656 1049.433594 376.285156 1044.425781 376.34375 C 1043.445312 376.355469 1042.46875 376.367188 1041.460938 376.378906 C 1032.089844 376.492188 1022.714844 376.597656 1013.339844 376.695312 C 1010.945312 376.71875 1008.550781 376.746094 1006.15625 376.773438 C 1002.726562 376.8125 999.296875 376.839844 995.867188 376.855469 C 994.105469 376.867188 992.347656 376.890625 990.585938 376.910156 C 977.800781 376.949219 977.800781 376.949219 972.757812 373.695312 C 970.070312 369.269531 970.707031 363.269531 970.71875 358.246094 C 970.71875 357.4375 970.71875 356.625 970.714844 355.792969 C 970.710938 353.128906 970.714844 350.460938 970.71875 347.796875 C 970.714844 345.941406 970.714844 344.082031 970.714844 342.226562 C 970.714844 338.335938 970.714844 334.449219 970.71875 330.5625 C 970.726562 325.582031 970.722656 320.597656 970.714844 315.617188 C 970.710938 311.785156 970.714844 307.949219 970.714844 304.117188 C 970.71875 302.28125 970.714844 300.445312 970.714844 298.605469 C 970.710938 296.039062 970.714844 293.472656 970.71875 290.90625 C 970.71875 290.152344 970.714844 289.394531 970.714844 288.613281 C 970.726562 285.003906 970.886719 281.640625 971.769531 278.132812 C 975.671875 276.667969 978.902344 276.039062 983.0625 276.035156 C 984.1875 276.027344 985.3125 276.019531 986.472656 276.015625 C 987.695312 276.015625 988.917969 276.019531 990.175781 276.023438 C 991.484375 276.019531 992.792969 276.011719 994.105469 276.007812 C 996.917969 275.996094 999.730469 275.992188 1002.546875 275.992188 C 1006.996094 275.988281 1011.449219 275.972656 1015.902344 275.953125 C 1026.957031 275.90625 1038.015625 275.878906 1049.074219 275.859375 C 1057.667969 275.84375 1066.265625 275.820312 1074.863281 275.78125 C 1079.285156 275.761719 1083.707031 275.753906 1088.128906 275.753906 C 1090.882812 275.753906 1093.640625 275.742188 1096.394531 275.722656 C 1098.273438 275.71875 1100.152344 275.722656 1102.03125 275.730469 C 1110.300781 275.664062 1110.300781 275.664062 1117.789062 272.554688 C 1119.929688 268.464844 1119.960938 264.191406 1120.035156 259.652344 C 1120.050781 258.957031 1120.070312 258.257812 1120.089844 257.539062 C 1120.144531 255.277344 1120.1875 253.015625 1120.230469 250.753906 C 1120.265625 249.1875 1120.300781 247.617188 1120.335938 246.046875 C 1120.433594 241.550781 1120.511719 237.058594 1120.578125 232.5625 C 1120.597656 231.472656 1120.613281 230.382812 1120.628906 229.261719 C 1120.773438 217.949219 1120.492188 206.667969 1119.980469 195.367188 C 1119.335938 180.546875 1119.640625 165.707031 1119.945312 150.878906 C 1119.980469 149.046875 1120.011719 147.214844 1120.042969 145.382812 C 1120.085938 142.6875 1120.136719 139.996094 1120.195312 137.304688 C 1120.203125 136.488281 1120.214844 135.675781 1120.226562 134.835938 C 1120.429688 126.410156 1120.429688 126.410156 1122.4375 122.816406 C 1127.171875 121.0625 1131.574219 120.671875 1136.613281 120.660156 C 1137.351562 120.648438 1138.085938 120.640625 1138.847656 120.628906 C 1141.269531 120.601562 1143.691406 120.585938 1146.113281 120.570312 C 1147.808594 120.550781 1149.507812 120.535156 1151.203125 120.515625 C 1155.664062 120.46875 1160.125 120.429688 1164.585938 120.394531 C 1169.097656 120.359375 1173.609375 120.3125 1178.121094 120.265625 C 1183.210938 120.214844 1188.296875 120.164062 1193.382812 120.121094 C 1194.15625 120.113281 1194.929688 120.105469 1195.730469 120.097656 C 1197.21875 120.085938 1198.707031 120.078125 1200.195312 120.070312 C 1203.261719 120.058594 1206.316406 120.019531 1209.382812 119.886719 Z M 1209.382812 119.886719 " fill-opacity="1" fill-rule="nonzero"/></svg>